<svg width="25" height="24" viewBox="0 0 25 24" fill="none" xmlns="http://www.w3.org/2000/svg">
<g id="Icons/Phonebubble02">
<path id="Vector" d="M12.75 5C8.8839 5 5.75 8.13404 5.75 12C5.75 13.0038 5.981 13.9709 6.3842 14.8657C5.8102 17.8302 5.7717 18.1687 5.7717 18.1687C5.6779 18.6543 6.0951 19.0701 6.5816 18.9782C6.5816 18.9782 6.8903 18.9103 9.8842 18.3438C10.7788 18.7469 11.7462 19 12.75 19C16.6161 19 19.75 15.866 19.75 12C19.75 8.13404 16.6161 5 12.75 5ZM10.7816 8.5C11.4375 8.5 12.3125 9.375 12.3125 10.0312C12.3125 10.25 11.8547 11.028 11.875 11.125C12.0206 11.82 12.9278 12.7491 13.625 12.875C13.7083 12.89 14.5 12.4375 14.7184 12.4375C15.375 12.4375 16.25 13.3125 16.25 13.9688C16.25 14.625 15.375 15.5 14.7184 15.5C13.8728 15.5 12.3125 14.625 11.4375 13.75C11.343 13.6558 11.0945 13.4066 11 13.3125C10.125 12.4375 9.25 10.877 9.25 10.0312C9.25 9.375 10.125 8.5 10.7816 8.5Z" fill="white"/>
</g>
</svg>
