<svg width="10" height="9" viewBox="0 0 10 9" fill="none" xmlns="http://www.w3.org/2000/svg">
<g id="like-1--reward-social-up-rating-media-like-thumb-hand">
<path id="Union" fill-rule="evenodd" clip-rule="evenodd" d="M3.47935 8.00134C3.67666 8.09536 3.89248 8.14417 4.11106 8.14417H7.25078C7.97416 8.14417 8.58971 7.61736 8.70141 6.90273L9.069 4.55161C9.18035 3.83921 8.62952 3.19558 7.9085 3.19558H5.97996V1.81095C5.97996 1.28379 5.55261 0.856445 5.02545 0.856445C4.67994 0.856445 4.36141 1.04316 4.19261 1.34463L2.97259 3.52355C2.89896 3.65505 2.8603 3.80323 2.8603 3.95394V7.15028C2.8603 7.48992 3.05559 7.79936 3.36222 7.94548L3.47935 8.00134ZM1.50185 3.63117C1.34665 3.63117 1.19781 3.69282 1.08808 3.80255C0.978338 3.9123 0.916687 4.06113 0.916687 4.21632L0.916687 7.21894C0.916687 7.37416 0.978338 7.52298 1.08808 7.63275C1.19781 7.74246 1.34665 7.80412 1.50185 7.80412L1.79348 7.804C1.95561 7.80395 2.087 7.67245 2.087 7.51035V3.92469C2.087 3.84679 2.05605 3.77208 2.00095 3.71701C1.94585 3.66193 1.87113 3.63101 1.79323 3.63104L1.50185 3.63117Z" fill="#FF7A00"/>
</g>
</svg>
