<svg width="99" height="35" viewBox="0 0 99 35" fill="none" xmlns="http://www.w3.org/2000/svg">
<path d="M20.2929 34.2707C21.7742 32.8396 22.5148 31.6973 22.5148 30.8437C22.5148 30.0151 21.8244 29.4251 20.4435 29.0736C19.389 30.4796 17.9328 31.6847 16.0749 32.689C14.217 33.7184 11.9072 34.3335 9.14548 34.5343C8.8693 34.5594 8.48015 34.572 7.97801 34.572C6.67246 34.572 5.54266 34.3837 4.5886 34.0071C3.63455 33.6305 2.8939 33.1284 2.36665 32.5007C1.86452 31.8981 1.61345 31.2454 1.61345 30.5424C1.61345 29.6887 1.9775 28.8728 2.7056 28.0945C3.43369 27.291 4.53839 26.6132 6.01969 26.0608C7.52609 25.5085 9.38399 25.157 11.5934 25.0063C13.5517 24.9059 14.8824 24.8557 15.5854 24.8557C16.1126 24.8557 16.8533 24.8808 17.8073 24.931L18.5605 23.3493H23.381L22.3265 25.6089C24.084 26.0608 25.3519 26.7136 26.1302 27.5672C26.9336 28.4208 27.3353 29.3875 27.3353 30.4671C27.3353 31.7224 26.8834 32.9903 25.9796 34.2707H20.2929ZM27.8626 0V22.2948H23.3433V16.3445C20.205 17.5747 16.5143 18.3405 12.2713 18.6418V22.6714H7.75205V18.7924C5.29159 18.7673 2.81858 18.6292 0.333008 18.3781L0.709609 14.2355C3.74753 14.5117 6.33352 14.6498 8.4676 14.6498C14.3426 14.6498 19.3012 13.7083 23.3433 11.8253V0H27.8626ZM8.8442 5.12178C7.81482 5.12178 7.09928 5.22221 6.69757 5.42306C6.29586 5.59881 6.09501 6.01307 6.09501 6.66585C6.09501 7.16798 6.4214 7.58224 7.07417 7.90863C7.75205 8.20991 8.75632 8.36055 10.087 8.36055H10.4636C11.7942 8.36055 12.786 8.20991 13.4387 7.90863C14.1166 7.58224 14.4556 7.16798 14.4556 6.66585C14.4556 6.01307 14.2547 5.59881 13.853 5.42306C13.4513 5.22221 12.7483 5.12178 11.744 5.12178H8.8442ZM10.4636 0.979164C13.0245 0.979164 15.0832 1.35577 16.6398 2.10897C18.1965 2.83706 18.9748 4.34347 18.9748 6.62818C18.9748 7.78309 18.6233 8.81247 17.9203 9.71632C17.2173 10.5951 16.2256 11.2855 14.9451 11.7876C13.6647 12.2647 12.1708 12.5032 10.4636 12.5032H10.087C8.37972 12.5032 6.88587 12.2647 5.60543 11.7876C4.32498 11.2855 3.33326 10.5951 2.63028 9.71632C1.92729 8.81247 1.57579 7.78309 1.57579 6.62818C1.57579 4.34347 2.3541 2.83706 3.91072 2.10897C5.46734 1.35577 7.52609 0.979164 10.087 0.979164H10.4636ZM8.76888 30.7683C11.38 30.5926 13.5015 29.877 15.1334 28.6217L11.8947 28.7723C10.1121 28.8979 8.681 29.1113 7.60141 29.4126C6.54693 29.739 6.01969 30.0528 6.01969 30.3541C6.01969 30.6553 6.55948 30.806 7.63907 30.806C8.1161 30.806 8.4927 30.7934 8.76888 30.7683Z" fill="#202020"/>
<path d="M60.0376 30.5424H29.4575V26.3998H42.5256V19.5079H38.8349C36.7761 19.5079 35.1819 18.9305 34.0521 17.7756C32.9474 16.5956 32.4829 15.0013 32.6586 12.9927C33.0352 10.0804 33.6127 7.39394 34.391 4.93348H32.2444V0.790864H56.8741V19.5079H47.0448V26.3998H60.0376V30.5424ZM37.1779 13.3693C37.1276 14.1477 37.2155 14.6749 37.4415 14.9511C37.6674 15.2272 38.1319 15.3653 38.8349 15.3653H52.3549V4.93348H39.1362C38.6592 6.26414 38.2574 7.58224 37.9311 8.88779C37.6298 10.1682 37.3787 11.6621 37.1779 13.3693Z" fill="#202020"/>
<path d="M67.5075 27.3036C67.5075 27.9313 67.8088 28.4711 68.4113 28.923C69.0139 29.3749 69.9177 29.7013 71.1229 29.9021C72.7799 30.1281 74.1608 30.2411 75.2655 30.2411C76.4204 30.2411 77.8013 30.1281 79.4081 29.9021C80.6132 29.7013 81.5171 29.3749 82.1196 28.923C82.7222 28.4711 83.0235 27.9313 83.0235 27.3036V27.0023C83.0235 26.2993 82.7222 25.7093 82.1196 25.2323C81.5422 24.7302 80.7639 24.4791 79.7847 24.4791H70.7463C69.7671 24.4791 68.9762 24.7302 68.3737 25.2323C67.7962 25.7093 67.5075 26.2993 67.5075 27.0023V27.3036ZM62.9883 27.0023C62.9883 25.7972 63.3147 24.6925 63.9674 23.6882C64.6453 22.6588 65.5743 21.8429 66.7543 21.2403C67.9343 20.6378 69.265 20.3365 70.7463 20.3365H79.7847C81.266 20.3365 82.5967 20.6378 83.7767 21.2403C84.9567 21.8429 85.8731 22.6588 86.5259 23.6882C87.2037 24.6925 87.5427 25.7972 87.5427 27.0023V27.3036C87.5427 29.0862 86.8522 30.5549 85.4714 31.7098C84.0905 32.8899 82.3205 33.6431 80.1613 33.9694C78.4038 34.2205 76.7719 34.346 75.2655 34.346C73.7842 34.346 72.1522 34.2205 70.3697 33.9694C68.2105 33.6431 66.4405 32.8899 65.0596 31.7098C63.6787 30.5549 62.9883 29.0862 62.9883 27.3036V27.0023ZM87.0154 0V19.6586H82.4962V0H87.0154ZM80.2366 16.7588C78.2783 17.286 76.4832 17.7003 74.8512 18.0015C73.2193 18.3028 71.6627 18.4535 70.1814 18.4535C66.0639 18.4535 63.3523 17.06 62.0468 14.2732C61.2434 12.6664 60.8417 10.7331 60.8417 8.47353C60.8417 6.54031 61.1555 4.04219 61.7832 0.979164H66.3777C65.7249 4.0673 65.3985 6.59052 65.3985 8.54885C65.3985 10.2059 65.637 11.5114 66.1141 12.4655C66.7166 13.7208 68.1101 14.3485 70.2943 14.3485C71.5246 14.3485 72.9306 14.1853 74.5123 13.8589C76.1191 13.5325 78.0272 13.0681 80.2366 12.4655V16.7588Z" fill="#202020"/>
<path d="M94.4833 24.4094L94.8915 26.5419L96.0846 24.7279L95.6457 26.8543L97.4421 25.635L96.2229 27.4315L98.3492 26.9926L96.5353 28.1857L98.6677 28.5939L96.5353 29.0021L98.3492 30.1952L96.2229 29.7563L97.4421 31.5527L95.6457 30.3335L96.0846 32.4598L94.8915 30.6459L94.4833 32.7783L94.0751 30.6459L92.882 32.4598L93.3209 30.3335L91.5244 31.5527L92.7437 29.7563L90.6174 30.1952L92.4313 29.0021L90.2988 28.5939L92.4313 28.1857L90.6174 26.9926L92.7437 27.4315L91.5244 25.635L93.3209 26.8543L92.882 24.7279L94.0751 26.5419L94.4833 24.4094Z" fill="#FF7A00"/>
</svg>
