<svg width="375" height="162" viewBox="0 0 375 162" fill="none" xmlns="http://www.w3.org/2000/svg">
<path d="M57.0078 86.4766V88.5859H42.3594V101.047H39.9766V88.5859H25.4844V86.4766H57.0078ZM41.1875 68.0391C48.375 68.0391 53.1797 70.9297 53.1797 75.5391C53.1797 80.1094 48.375 83 41.1875 83C34 83 29.1953 80.1094 29.1953 75.5391C29.1953 70.9297 34 68.0391 41.1875 68.0391ZM41.1875 70.0703C35.5625 70.0703 31.6953 72.2578 31.6953 75.5391C31.6953 78.8203 35.5625 80.9688 41.1875 80.9688C46.7734 80.9688 50.6797 78.8203 50.6797 75.5391C50.6797 72.2578 46.7734 70.0703 41.1875 70.0703ZM88.0141 66.5938V101.086H85.5922V66.5938H88.0141ZM64.5766 90.5391C70.2406 90.5391 75.5141 90.3047 81.9594 89.25L82.1937 91.3594C75.6703 92.375 70.3969 92.6484 64.5766 92.6484H61.725V79.7578H75.1234V71.9844H61.6859V69.875H77.5844V81.8281H64.2641V90.5391H64.5766ZM129.948 66.5938V74.9141H135.261V77.0234H129.948V85.1094H127.488V66.5938H129.948ZM120.691 69.0547C120.691 77.5312 114.402 83.3516 104.363 85.8125L103.308 83.7422C112.116 81.6523 117.448 77.043 117.956 71.0859H104.714V69.0547H120.691ZM130.105 86.75V88.7031H110.847V92.5703H129.675V94.4844H110.847V98.5859H130.925V100.539H108.386V86.75H130.105ZM165.564 66.5938V101.086H163.103V66.5938H165.564ZM147.361 69.3281C152.439 69.3281 156.072 73.9766 156.072 81.2422C156.072 88.5078 152.439 93.1562 147.361 93.1562C142.244 93.1562 138.65 88.5078 138.65 81.2422C138.65 73.9766 142.244 69.3281 147.361 69.3281ZM147.361 71.5156C143.65 71.5156 141.033 75.5 141.033 81.2422C141.033 87.0234 143.65 90.9688 147.361 90.9688C151.072 90.9688 153.65 87.0234 153.65 81.2422C153.65 75.5 151.072 71.5156 147.361 71.5156Z" fill="#202020"/>
<path d="M43.9599 151.271C45.4412 149.84 46.1818 148.697 46.1818 147.844C46.1818 147.015 45.4914 146.425 44.1105 146.074C43.056 147.48 41.5998 148.685 39.7419 149.689C37.884 150.718 35.5742 151.333 32.8125 151.534C32.5363 151.559 32.1471 151.572 31.645 151.572C30.3395 151.572 29.2097 151.384 28.2556 151.007C27.3015 150.631 26.5609 150.128 26.0336 149.501C25.5315 148.898 25.2804 148.245 25.2804 147.542C25.2804 146.689 25.6445 145.873 26.3726 145.094C27.1007 144.291 28.2054 143.613 29.6867 143.061C31.1931 142.508 33.051 142.157 35.2604 142.006C37.2187 141.906 38.5494 141.856 39.2524 141.856C39.7796 141.856 40.5202 141.881 41.4743 141.931L42.2275 140.349H47.048L45.9935 142.609C47.751 143.061 49.0189 143.714 49.7972 144.567C50.6006 145.421 51.0023 146.387 51.0023 147.467C51.0023 148.722 50.5504 149.99 49.6465 151.271H43.9599ZM51.5296 117V139.295H47.0103V133.344C43.872 134.575 40.1813 135.34 35.9383 135.642V139.671H31.419V135.792C28.9586 135.767 26.4856 135.629 24 135.378L24.3766 131.236C27.4145 131.512 30.0005 131.65 32.1346 131.65C38.0096 131.65 42.9682 130.708 47.0103 128.825V117H51.5296ZM32.5112 122.122C31.4818 122.122 30.7663 122.222 30.3646 122.423C29.9629 122.599 29.762 123.013 29.762 123.666C29.762 124.168 30.0884 124.582 30.7412 124.909C31.419 125.21 32.4233 125.361 33.754 125.361H34.1306C35.4612 125.361 36.4529 125.21 37.1057 124.909C37.7836 124.582 38.1225 124.168 38.1225 123.666C38.1225 123.013 37.9217 122.599 37.52 122.423C37.1183 122.222 36.4153 122.122 35.411 122.122H32.5112ZM34.1306 117.979C36.6915 117.979 38.7502 118.356 40.3068 119.109C41.8635 119.837 42.6418 121.343 42.6418 123.628C42.6418 124.783 42.2903 125.812 41.5873 126.716C40.8843 127.595 39.8926 128.285 38.6121 128.788C37.3317 129.265 35.8378 129.503 34.1306 129.503H33.754C32.0467 129.503 30.5529 129.265 29.2724 128.788C27.992 128.285 27.0003 127.595 26.2973 126.716C25.5943 125.812 25.2428 124.783 25.2428 123.628C25.2428 121.343 26.0211 119.837 27.5777 119.109C29.1343 118.356 31.1931 117.979 33.754 117.979H34.1306ZM32.4359 147.768C35.047 147.593 37.1685 146.877 38.8004 145.622L35.5617 145.772C33.7791 145.898 32.348 146.111 31.2684 146.413C30.2139 146.739 29.6867 147.053 29.6867 147.354C29.6867 147.655 30.2265 147.806 31.3061 147.806C31.7831 147.806 32.1597 147.793 32.4359 147.768Z" fill="#202020"/>
<path d="M83.7045 147.542H53.1245V143.4H66.1926V136.508H62.5019C60.4431 136.508 58.8489 135.93 57.7191 134.776C56.6144 133.596 56.1499 132.001 56.3256 129.993C56.7022 127.08 57.2797 124.394 58.058 121.933H55.9114V117.791H80.5411V136.508H70.7118V143.4H83.7045V147.542ZM60.8448 130.369C60.7946 131.148 60.8825 131.675 61.1085 131.951C61.3344 132.227 61.7989 132.365 62.5019 132.365H76.0219V121.933H62.8032C62.3261 123.264 61.9244 124.582 61.598 125.888C61.2968 127.168 61.0457 128.662 60.8448 130.369Z" fill="#202020"/>
<path d="M91.1745 144.304C91.1745 144.931 91.4758 145.471 92.0783 145.923C92.6809 146.375 93.5847 146.701 94.7899 146.902C96.4469 147.128 97.8278 147.241 98.9325 147.241C100.087 147.241 101.468 147.128 103.075 146.902C104.28 146.701 105.184 146.375 105.787 145.923C106.389 145.471 106.69 144.931 106.69 144.304V144.002C106.69 143.299 106.389 142.709 105.787 142.232C105.209 141.73 104.431 141.479 103.452 141.479H94.4133C93.4341 141.479 92.6432 141.73 92.0407 142.232C91.4632 142.709 91.1745 143.299 91.1745 144.002V144.304ZM86.6553 144.002C86.6553 142.797 86.9817 141.692 87.6344 140.688C88.3123 139.659 89.2413 138.843 90.4213 138.24C91.6013 137.638 92.932 137.336 94.4133 137.336H103.452C104.933 137.336 106.264 137.638 107.444 138.24C108.624 138.843 109.54 139.659 110.193 140.688C110.871 141.692 111.21 142.797 111.21 144.002V144.304C111.21 146.086 110.519 147.555 109.138 148.71C107.757 149.89 105.987 150.643 103.828 150.969C102.071 151.221 100.439 151.346 98.9325 151.346C97.4512 151.346 95.8192 151.221 94.0367 150.969C91.8775 150.643 90.1075 149.89 88.7266 148.71C87.3457 147.555 86.6553 146.086 86.6553 144.304V144.002ZM110.682 117V136.659H106.163V117H110.682ZM103.904 133.759C101.945 134.286 100.15 134.7 98.5182 135.002C96.8863 135.303 95.3297 135.453 93.8484 135.453C89.7309 135.453 87.0193 134.06 85.7138 131.273C84.9104 129.666 84.5086 127.733 84.5086 125.474C84.5086 123.54 84.8225 121.042 85.4501 117.979H90.0447C89.3919 121.067 89.0655 123.591 89.0655 125.549C89.0655 127.206 89.304 128.511 89.7811 129.466C90.3836 130.721 91.777 131.349 93.9613 131.349C95.1916 131.349 96.5975 131.185 98.1793 130.859C99.7861 130.533 101.694 130.068 103.904 129.466V133.759Z" fill="#202020"/>
<path d="M119 140L119.488 142.548L120.913 140.381L120.389 142.921L122.536 141.464L121.079 143.611L123.619 143.087L121.452 144.512L124 145L121.452 145.488L123.619 146.913L121.079 146.389L122.536 148.536L120.389 147.079L120.913 149.619L119.488 147.452L119 150L118.512 147.452L117.087 149.619L117.611 147.079L115.464 148.536L116.921 146.389L114.381 146.913L116.548 145.488L114 145L116.548 144.512L114.381 143.087L116.921 143.611L115.464 141.464L117.611 142.921L117.087 140.381L118.512 142.548L119 140Z" fill="#FF7A00"/>
<path d="M158.359 116.723V125.395H163.711V127.466H158.359V135.903H155.898V116.723H158.359ZM158.359 137.817V145.122H139.141V148.911H159.688V150.903H136.719V143.208H155.898V139.731H136.641V137.817H158.359ZM152.188 120.2V122.192H131.641V120.2H140.703V116.45H143.125V120.2H152.188ZM141.914 123.989C146.875 123.989 150.117 126.177 150.117 129.653C150.117 133.169 146.875 135.317 141.914 135.317C136.914 135.317 133.672 133.169 133.672 129.653C133.672 126.177 136.914 123.989 141.914 123.989ZM141.914 125.864C138.359 125.903 135.977 127.427 136.016 129.653C135.977 131.919 138.359 133.403 141.914 133.403C145.43 133.403 147.773 131.919 147.812 129.653C147.773 127.427 145.43 125.903 141.914 125.864ZM179.756 120.747V132.387H169.327V140.747C173.506 140.747 177.452 140.571 182.217 139.77L182.452 141.841C177.452 142.7 173.506 142.856 169.131 142.856H166.905V130.278H177.373V122.856H166.827V120.747H179.756ZM195.03 116.88V151.333H192.647V132.778H187.061V149.497H184.756V117.7H187.061V130.669H192.647V116.88H195.03ZM231.427 144.653V146.762H199.864V144.653H207.911V135.083C204.884 133.559 203.067 131.079 203.067 127.973C203.067 122.661 208.223 119.223 215.528 119.184C222.872 119.223 228.028 122.661 228.028 127.973C228.028 131.04 226.251 133.501 223.302 135.005V144.653H231.427ZM215.528 121.255C209.669 121.216 205.411 123.95 205.411 127.973C205.411 131.919 209.669 134.692 215.528 134.653C221.387 134.692 225.684 131.919 225.684 127.973C225.684 123.95 221.387 121.216 215.528 121.255ZM210.333 144.653H220.841V135.942C219.259 136.411 217.462 136.645 215.528 136.645C213.634 136.645 211.876 136.411 210.333 135.981V144.653ZM239.62 139.536C239.659 135.044 241.105 133.481 243.8 131.723C245.792 130.473 246.925 128.95 246.925 126.802C246.925 123.911 244.659 121.997 241.808 121.997C239.152 121.997 236.769 123.716 236.613 127.075H233.8C233.917 122.505 237.394 119.614 241.808 119.614C246.456 119.614 249.62 122.7 249.62 126.919C249.62 129.77 248.292 131.762 245.714 133.442C243.214 135.044 242.355 136.45 242.316 139.536V140.2H239.62V139.536ZM241.066 148.481C239.894 148.481 238.956 147.544 238.956 146.411C238.956 145.239 239.894 144.302 241.066 144.302C242.198 144.302 243.136 145.239 243.136 146.411C243.136 147.544 242.198 148.481 241.066 148.481Z" fill="#202020"/>
</svg>
