<svg width="231" height="92" viewBox="0 0 231 92" fill="none" xmlns="http://www.w3.org/2000/svg">
<path d="M32.0078 20.4766V22.5859H17.3594V35.0469H14.9766V22.5859H0.484375V20.4766H32.0078ZM16.1875 2.03906C23.375 2.03906 28.1797 4.92969 28.1797 9.53906C28.1797 14.1094 23.375 17 16.1875 17C9 17 4.19531 14.1094 4.19531 9.53906C4.19531 4.92969 9 2.03906 16.1875 2.03906ZM16.1875 4.07031C10.5625 4.07031 6.69531 6.25781 6.69531 9.53906C6.69531 12.8203 10.5625 14.9688 16.1875 14.9688C21.7734 14.9688 25.6797 12.8203 25.6797 9.53906C25.6797 6.25781 21.7734 4.07031 16.1875 4.07031ZM63.0141 0.59375V35.0859H60.5922V0.59375H63.0141ZM39.5766 24.5391C45.2406 24.5391 50.5141 24.3047 56.9594 23.25L57.1937 25.3594C50.6703 26.375 45.3969 26.6484 39.5766 26.6484H36.725V13.7578H50.1234V5.98438H36.6859V3.875H52.5844V15.8281H39.2641V24.5391H39.5766ZM104.948 0.59375V8.91406H110.261V11.0234H104.948V19.1094H102.488V0.59375H104.948ZM95.6906 3.05469C95.6906 11.5312 89.4016 17.3516 79.3625 19.8125L78.3078 17.7422C87.1164 15.6523 92.4484 11.043 92.9563 5.08594H79.7141V3.05469H95.6906ZM105.105 20.75V22.7031H85.8469V26.5703H104.675V28.4844H85.8469V32.5859H105.925V34.5391H83.3859V20.75H105.105ZM140.564 0.59375V35.0859H138.103V0.59375H140.564ZM122.361 3.32812C127.439 3.32812 131.072 7.97656 131.072 15.2422C131.072 22.5078 127.439 27.1562 122.361 27.1562C117.244 27.1562 113.65 22.5078 113.65 15.2422C113.65 7.97656 117.244 3.32812 122.361 3.32812ZM122.361 5.51562C118.65 5.51562 116.033 9.5 116.033 15.2422C116.033 21.0234 118.65 24.9688 122.361 24.9688C126.072 24.9688 128.65 21.0234 128.65 15.2422C128.65 9.5 126.072 5.51562 122.361 5.51562ZM29.8984 56.0469V81.5547H24.9375V56.0469H29.8984ZM0.132812 72.1016C6.57812 72.1016 15.4453 72.0234 22.9453 70.9688L23.2188 74.4844C20.0352 75.0703 16.6953 75.4414 13.4531 75.6562V81.1641H8.53125V75.9297C5.75781 76.0469 3.14062 76.1055 0.796875 76.125L0.132812 72.1016ZM20.9922 80.0312C20.9922 83.3906 24.625 86.7891 32.3594 87.6484L30.6016 91.4375C24.8008 90.6562 20.6406 88.4883 18.4922 85.4219C16.3242 88.5078 12.1445 90.7344 6.26562 91.4766L4.58594 87.6484C12.2812 86.7891 15.9141 83.3906 15.9531 80.0312V78.625H20.9922V80.0312ZM11.6953 57.1406C17.0469 57.1406 20.7969 59.7578 20.8359 63.7031C20.7969 67.5703 17.0859 70.1875 11.6953 70.1875C6.30469 70.1875 2.59375 67.5703 2.59375 63.7031C2.59375 59.7578 6.30469 57.1406 11.6953 57.1406ZM11.6953 60.8125C9.19531 60.8125 7.4375 61.8281 7.4375 63.7031C7.4375 65.5 9.19531 66.4766 11.6953 66.5156C14.1953 66.4766 15.9531 65.5 15.9531 63.7031C15.9531 61.8281 14.1953 60.8125 11.6953 60.8125ZM66.7641 83.3516V87.4531H34.225V83.3516H47.9359V76.0859H37.6625V58.6641H63.1312V76.0859H52.8969V83.3516H66.7641ZM42.5844 62.6484V72.1797H58.2094V62.6484H42.5844ZM98.0437 56.0469V76.6719H93.0828V56.0469H98.0437ZM75.4266 58.2734V70.5391C80.3094 70.4805 85.1141 70.0898 90.1922 69.0156L90.7781 73.0391C84.8797 74.2891 79.2547 74.6797 73.5125 74.6406H70.4266V58.2734H75.4266ZM85.9734 77.1016C93.4734 77.1016 98.2 79.7969 98.2 84.4062C98.2 88.8984 93.4734 91.5938 85.9734 91.5938C78.4344 91.5938 73.6687 88.8984 73.7078 84.4062C73.6687 79.7969 78.4344 77.1016 85.9734 77.1016ZM85.9734 81.125C81.2469 81.125 78.6687 82.1797 78.6687 84.4062C78.6687 86.5156 81.2469 87.6484 85.9734 87.6484C90.6609 87.6484 93.1609 86.5156 93.2 84.4062C93.1609 82.1797 90.6609 81.125 85.9734 81.125ZM139.119 56.4375V65.1094H144.47V67.1797H139.119V75.6172H136.658V56.4375H139.119ZM139.119 77.5312V84.8359H119.9V88.625H140.447V90.6172H117.478V82.9219H136.658V79.4453H117.4V77.5312H139.119ZM132.947 59.9141V61.9062H112.4V59.9141H121.463V56.1641H123.884V59.9141H132.947ZM122.673 63.7031C127.634 63.7031 130.877 65.8906 130.877 69.3672C130.877 72.8828 127.634 75.0312 122.673 75.0312C117.673 75.0312 114.431 72.8828 114.431 69.3672C114.431 65.8906 117.673 63.7031 122.673 63.7031ZM122.673 65.5781C119.119 65.6172 116.736 67.1406 116.775 69.3672C116.736 71.6328 119.119 73.1172 122.673 73.1172C126.189 73.1172 128.533 71.6328 128.572 69.3672C128.533 67.1406 126.189 65.6172 122.673 65.5781ZM160.516 60.4609V72.1016H150.086V80.4609C154.266 80.4609 158.211 80.2852 162.977 79.4844L163.211 81.5547C158.211 82.4141 154.266 82.5703 149.891 82.5703H147.664V69.9922H158.133V62.5703H147.586V60.4609H160.516ZM175.789 56.5938V91.0469H173.406V72.4922H167.82V89.2109H165.516V57.4141H167.82V70.3828H173.406V56.5938H175.789ZM212.186 84.3672V86.4766H180.623V84.3672H188.67V74.7969C185.643 73.2734 183.827 70.793 183.827 67.6875C183.827 62.375 188.983 58.9375 196.288 58.8984C203.631 58.9375 208.788 62.375 208.788 67.6875C208.788 70.7539 207.01 73.2148 204.061 74.7188V84.3672H212.186ZM196.288 60.9688C190.428 60.9297 186.17 63.6641 186.17 67.6875C186.17 71.6328 190.428 74.4062 196.288 74.3672C202.147 74.4062 206.444 71.6328 206.444 67.6875C206.444 63.6641 202.147 60.9297 196.288 60.9688ZM191.092 84.3672H201.6V75.6562C200.018 76.125 198.221 76.3594 196.288 76.3594C194.393 76.3594 192.635 76.125 191.092 75.6953V84.3672ZM220.38 79.25C220.419 74.7578 221.864 73.1953 224.559 71.4375C226.552 70.1875 227.684 68.6641 227.684 66.5156C227.684 63.625 225.419 61.7109 222.567 61.7109C219.911 61.7109 217.528 63.4297 217.372 66.7891H214.559C214.677 62.2188 218.153 59.3281 222.567 59.3281C227.216 59.3281 230.38 62.4141 230.38 66.6328C230.38 69.4844 229.052 71.4766 226.473 73.1562C223.973 74.7578 223.114 76.1641 223.075 79.25V79.9141H220.38V79.25ZM221.825 88.1953C220.653 88.1953 219.716 87.2578 219.716 86.125C219.716 84.9531 220.653 84.0156 221.825 84.0156C222.958 84.0156 223.895 84.9531 223.895 86.125C223.895 87.2578 222.958 88.1953 221.825 88.1953Z" fill="black"/>
</svg>
