<svg width="24" height="24" viewBox="0 0 24 24" fill="none" xmlns="http://www.w3.org/2000/svg">
<path d="M13.8511 4C13.5069 4.0008 13.1418 4.11565 12.9136 4.24996C12.5095 4.48791 9.41176 6.66665 9.41176 6.66665C9.41176 6.66665 7.05253 6.66487 6.76471 6.66665C5.81132 6.67269 5.00697 7.4957 5 8.44441V15.5555C5.01041 16.5455 5.76535 17.3425 6.76471 17.3332C7.01415 17.3309 9.41176 17.3332 9.41176 17.3332C9.41176 17.3332 12.5699 19.5337 12.9687 19.7776C13.2001 19.9191 13.4625 20.004 13.8235 19.9999C14.8097 19.9884 15.5998 19.1643 15.5882 18.1944V11.9999V5.77777C15.5873 4.77964 14.8047 3.99787 13.8511 4ZM18.3456 8.44441C18.1219 8.41312 17.9057 8.46298 17.7114 8.61107C17.3228 8.90725 17.2244 9.46955 17.5184 9.8611C17.9758 10.4703 18.2353 11.2108 18.2353 11.9999C18.2353 12.7805 17.9739 13.5276 17.5184 14.1388C17.2258 14.5314 17.3217 15.094 17.7114 15.3888C18.1011 15.6835 18.6596 15.5869 18.9522 15.1944C19.6352 14.278 20 13.1691 20 11.9999C20 10.8217 19.6403 9.72199 18.9522 8.80547C18.8052 8.60974 18.5693 8.4757 18.3456 8.44441Z" fill="#202020"/>
</svg>
