<svg width="24" height="24" viewBox="0 0 24 24" fill="none" xmlns="http://www.w3.org/2000/svg">
<g id="Icons/Apple">
<path id="path4" d="M17.7485 15.6896C17.5331 16.2136 17.278 16.696 16.9826 17.1395C16.5798 17.7441 16.25 18.1626 15.9959 18.395C15.6019 18.7765 15.1798 18.9719 14.7278 18.983C14.4033 18.983 14.012 18.8858 13.5565 18.6885C13.0995 18.4922 12.6795 18.395 12.2955 18.395C11.8927 18.395 11.4608 18.4922 10.9987 18.6885C10.536 18.8858 10.1632 18.9885 9.87824 18.9987C9.44479 19.0182 9.01275 18.8172 8.5815 18.395C8.30626 18.1423 7.96198 17.7089 7.54955 17.0951C7.10705 16.4395 6.74325 15.6794 6.45824 14.8127C6.15301 13.8766 6 12.9702 6 12.0926C6 11.0874 6.2063 10.2204 6.61952 9.49382C6.94428 8.91022 7.37632 8.44987 7.91705 8.11191C8.45778 7.77396 9.04203 7.60174 9.67123 7.59073C10.0155 7.59073 10.467 7.70285 11.028 7.92322C11.5875 8.14432 11.9467 8.25645 12.1042 8.25645C12.222 8.25645 12.621 8.12534 13.2975 7.86396C13.9373 7.62156 14.4772 7.52119 14.9195 7.56073C16.1181 7.66258 17.0186 8.16006 17.6175 9.05633C16.5455 9.7402 16.0152 10.698 16.0258 11.9268C16.0355 12.8839 16.3652 13.6804 17.0133 14.3127C17.307 14.6063 17.6351 14.8331 18 14.9942C17.9209 15.2359 17.8373 15.4673 17.7485 15.6896ZM14.9996 4.30009C14.9996 5.05026 14.7393 5.75069 14.2204 6.399C13.5943 7.16972 12.837 7.61508 12.0157 7.5448C12.0053 7.4548 11.9992 7.36009 11.9992 7.26055C11.9992 6.54039 12.297 5.76967 12.8257 5.1395C13.0897 4.82044 13.4255 4.55514 13.8326 4.34351C14.2389 4.13503 14.6232 4.01974 14.9846 4C14.9952 4.10029 14.9996 4.20059 14.9996 4.30009Z" fill="white"/>
</g>
</svg>
