<svg width="24" height="24" viewBox="0 0 24 24" fill="none" xmlns="http://www.w3.org/2000/svg">
<g id="Icons/Camera">
<path id="Icon" d="M8 7.30137V7.9863C8.2391 7.9863 8.4609 7.86162 8.58516 7.65734L8 7.30137ZM9.4 5V4.31507C9.1609 4.31507 8.9391 4.43975 8.81484 4.64403L9.4 5ZM14.6 5L15.1852 4.64403C15.0609 4.43975 14.8391 4.31507 14.6 4.31507V5ZM16 7.30137L15.4148 7.65734C15.5391 7.86162 15.7609 7.9863 16 7.9863V7.30137ZM4.68493 17.0822V9.21918H3.31507V17.0822H4.68493ZM6 7.9863H8V6.61644H6V7.9863ZM8.58516 7.65734L9.98516 5.35597L8.81484 4.64403L7.41484 6.9454L8.58516 7.65734ZM9.4 5.68493H14.6V4.31507H9.4V5.68493ZM14.0148 5.35597L15.4148 7.65734L16.5852 6.9454L15.1852 4.64403L14.0148 5.35597ZM16 7.9863H18V6.61644H16V7.9863ZM19.3151 9.21918V17.0822H20.6849V9.21918H19.3151ZM19.3151 17.0822C19.3151 17.7363 18.7537 18.3151 18 18.3151V19.6849C19.4555 19.6849 20.6849 18.5465 20.6849 17.0822H19.3151ZM18 7.9863C18.7537 7.9863 19.3151 8.56508 19.3151 9.21918H20.6849C20.6849 7.75492 19.4555 6.61644 18 6.61644V7.9863ZM4.68493 9.21918C4.68493 8.56508 5.24633 7.9863 6 7.9863V6.61644C4.54453 6.61644 3.31507 7.75492 3.31507 9.21918H4.68493ZM6 18.3151C5.24633 18.3151 4.68493 17.7363 4.68493 17.0822H3.31507C3.31507 18.5464 4.54453 19.6849 6 19.6849V18.3151ZM14.3151 12.6712C14.3151 13.8549 13.306 14.863 12 14.863V16.2329C14.0078 16.2329 15.6849 14.6651 15.6849 12.6712H14.3151ZM12 14.863C10.694 14.863 9.68493 13.8549 9.68493 12.6712H8.31507C8.31507 14.6651 9.99224 16.2329 12 16.2329V14.863ZM9.68493 12.6712C9.68493 11.4876 10.694 10.4795 12 10.4795V9.10959C9.99224 9.10959 8.31507 10.6774 8.31507 12.6712H9.68493ZM12 10.4795C13.306 10.4795 14.3151 11.4876 14.3151 12.6712H15.6849C15.6849 10.6774 14.0078 9.10959 12 9.10959V10.4795ZM18 18.3151H6V19.6849H18V18.3151Z" fill="white"/>
</g>
</svg>
