<svg width="25" height="24" viewBox="0 0 25 24" fill="none" xmlns="http://www.w3.org/2000/svg">
<g id="Icons/mobile_friendly_24px">
<path id="icon" fill-rule="evenodd" clip-rule="evenodd" d="M6.5 19.3636V4.63636C6.5 3.73636 7.23256 3.00818 8.12791 3.00818L16.2674 3C17.1628 3 17.8953 3.73636 17.8953 4.63636V7.90909H16.2674V7.09091H8.12791V16.9091H16.2674V16.0909H17.8953V19.3636C17.8953 20.2636 17.1628 21 16.2674 21H8.12791C7.23256 21 6.5 20.2636 6.5 19.3636ZM16.2674 19.3636V18.5455H8.12791V19.3636H16.2674ZM8.12791 4.63636H16.2674V5.45455H8.12791V4.63636ZM20.5 9.99545L19.3605 8.85L15.25 12.9818L13.3372 11.0591L12.1977 12.2045L15.25 15.2727L20.5 9.99545Z" fill="#627CF2"/>
</g>
</svg>
