<svg width="150" height="96" viewBox="0 0 150 96" fill="none" xmlns="http://www.w3.org/2000/svg">
<g opacity="0.2">
<path d="M55.8738 53.25C55.8738 54.0833 56.2738 54.8 57.0738 55.4C57.8738 56 59.0738 56.4333 60.6738 56.7C62.8738 57 64.7072 57.15 66.1738 57.15C67.7072 57.15 69.5405 57 71.6738 56.7C73.2738 56.4333 74.4738 56 75.2738 55.4C76.0738 54.8 76.4738 54.0833 76.4738 53.25V52.85C76.4738 51.9167 76.0738 51.1333 75.2738 50.5C74.5072 49.8333 73.4738 49.5 72.1738 49.5H60.1738C58.8738 49.5 57.8238 49.8333 57.0238 50.5C56.2572 51.1333 55.8738 51.9167 55.8738 52.85V53.25ZM49.8738 52.85C49.8738 51.25 50.3072 49.7833 51.1738 48.45C52.0738 47.0833 53.3072 46 54.8738 45.2C56.4405 44.4 58.2072 44 60.1738 44H72.1738C74.1405 44 75.9072 44.4 77.4738 45.2C79.0405 46 80.2572 47.0833 81.1238 48.45C82.0238 49.7833 82.4738 51.25 82.4738 52.85V53.25C82.4738 55.6167 81.5572 57.5667 79.7238 59.1C77.8905 60.6667 75.5405 61.6667 72.6738 62.1C70.3405 62.4333 68.1738 62.6 66.1738 62.6C64.2072 62.6 62.0405 62.4333 59.6738 62.1C56.8072 61.6667 54.4572 60.6667 52.6238 59.1C50.7905 57.5667 49.8738 55.6167 49.8738 53.25V52.85ZM81.7738 17V43.1H75.7738V32.45H70.2738V26.45H75.7738V17H81.7738ZM71.3738 41.15C68.3072 41.6167 65.9905 41.95 64.4238 42.15C62.8572 42.35 61.2572 42.45 59.6238 42.45C57.4238 42.45 55.4905 42.2167 53.8238 41.75C52.1572 41.25 50.7738 40.4167 49.6738 39.25C49.0072 38.5833 48.4905 37.8 48.1238 36.9C47.7572 36 47.5738 35.0833 47.5738 34.15C47.5738 33.45 47.6738 32.7833 47.8738 32.15H46.0738V26.65H68.1738V32.15H55.5738C54.9072 32.4167 54.4072 32.75 54.0738 33.15C53.7405 33.55 53.5738 33.9667 53.5738 34.4C53.5738 34.8333 53.7072 35.1833 53.9738 35.45C55.0072 36.4833 56.8238 37 59.4238 37C60.8238 37 62.3738 36.8833 64.0738 36.65C65.7738 36.4167 68.1405 36.05 71.1738 35.55C71.4738 35.5167 72.0072 35.4333 72.7738 35.3V40.9L71.3738 41.15ZM70.1738 23.8H46.0738V18.3H70.1738V23.8ZM95.8258 57.55C94.8258 57.55 93.9591 57.1833 93.2258 56.45C92.5258 55.75 92.1758 54.9 92.1758 53.9C92.1758 52.9 92.5258 52.05 93.2258 51.35C93.9591 50.6167 94.8258 50.25 95.8258 50.25C96.8258 50.25 97.6758 50.6167 98.3758 51.35C99.1091 52.05 99.4758 52.9 99.4758 53.9C99.4758 54.9 99.1091 55.75 98.3758 56.45C97.6758 57.1833 96.8258 57.55 95.8258 57.55ZM93.8258 46L96.8258 20H103.826L98.8258 46H93.8258Z" fill="#202020"/>
<path d="M6.38187 81.2188C6.38187 82.8438 7.6475 84.3438 9.78812 84.9531L9.10062 86.1094C7.48344 85.6328 6.28812 84.6484 5.66312 83.375C5.05375 84.7812 3.82719 85.8672 2.16312 86.375L1.44437 85.2188C3.585 84.5938 4.91312 82.9844 4.91312 81.2188V81.0781H1.86625V79.8906H4.91312V78.2656H6.3975V79.8906H9.42875V81.0781H6.38187V81.2188ZM12.4756 78.3281V81.7969H14.5069V83.0312H12.4756V86.5938H10.9912V78.3281H12.4756ZM12.4756 87.2188V92.1562H3.53812V87.2188H12.4756ZM4.99125 88.3906V90.9531H11.0069V88.3906H4.99125ZM18.9406 79.375C20.2141 79.375 21.2687 80.1094 21.8937 81.375H25.3469V78.3281H26.8156V92.3594H25.3469V86.9844H21.9875C21.3859 88.3906 20.2844 89.2031 18.9406 89.2031C16.8469 89.2031 15.3781 87.2969 15.3937 84.2812C15.3781 81.2812 16.8469 79.375 18.9406 79.375ZM18.9406 80.7031C17.675 80.7031 16.8 82.0781 16.8 84.2812C16.8 86.5 17.675 87.875 18.9406 87.875C20.2062 87.875 21.0812 86.5 21.0812 84.2812C21.0812 82.0781 20.2062 80.7031 18.9406 80.7031ZM22.3156 82.5938C22.4172 83.1094 22.4875 83.6719 22.4875 84.2812C22.4875 84.8125 22.4406 85.3047 22.3469 85.7656H25.3469V82.5938H22.3156ZM45.3237 84.8125V86.0156H39.6675V87.3594C42.2378 87.5 43.7612 88.3672 43.7612 89.8281C43.7612 91.4219 41.9487 92.3125 38.9331 92.2969C35.8862 92.3125 34.0737 91.4219 34.0737 89.8281C34.0737 88.3672 35.5972 87.5 38.1987 87.3594V86.0156H32.5581V84.8125H45.3237ZM38.9331 88.4844C36.7925 88.4844 35.5737 88.9688 35.5737 89.8281C35.5737 90.6719 36.7925 91.1719 38.9331 91.1562C41.0425 91.1719 42.2769 90.6719 42.2769 89.8281C42.2769 88.9688 41.0425 88.4844 38.9331 88.4844ZM44.1831 78.9688V80.1562H39.9331C40.1441 81.5078 42.1128 82.6562 44.6675 82.9062L44.1362 84.0781C41.7144 83.7969 39.7066 82.7734 38.9487 81.2812C38.1675 82.7734 36.1675 83.7969 33.7456 84.0781L33.23 82.9062C35.7456 82.6562 37.7222 81.5078 37.9331 80.1562H33.73V78.9688H44.1831ZM57.8356 78.3438V88.5156H56.3512V78.3438H57.8356ZM58.2575 90.8281V92.0312H48.6794V87.4844H50.1794V90.8281H58.2575ZM50.2419 79.2812C52.3512 79.2812 53.9606 80.7188 53.9606 82.75C53.9606 84.8125 52.3512 86.2344 50.2419 86.2344C48.1325 86.2344 46.5075 84.8125 46.5075 82.75C46.5075 80.7188 48.1325 79.2812 50.2419 79.2812ZM50.2419 80.5781C48.9294 80.5781 47.9606 81.4688 47.9606 82.75C47.9606 84.0625 48.9294 84.9375 50.2419 84.9375C51.5231 84.9375 52.5075 84.0625 52.5075 82.75C52.5075 81.4688 51.5231 80.5781 50.2419 80.5781ZM74.7344 79.75V81.25C74.7344 83.0625 74.7344 85.0312 74.2188 88.0156L72.7031 87.875C73.2656 85.0781 73.2656 83.0156 73.2656 81.25V80.9688H65.0156V79.75H74.7344ZM76.4062 89.1094V90.3438H63.6406V89.1094H76.4062ZM90.1056 85.2031V86.3906H84.4181V87.9688H82.9494V86.3906H77.2931V85.2031H90.1056ZM80.4337 87.2031V88.625H87.0275V87.2031H88.4962V92.1562H78.965V87.2031H80.4337ZM80.4337 91H87.0275V89.75H80.4337V91ZM88.4962 78.5938V81.9219H80.4025V83.0938H88.7775V84.2188H78.9337V80.8438H87.0119V79.7344H78.9025V78.5938H88.4962ZM102.571 78.3281V92.3594H101.086V78.3281H102.571ZM95.0863 79.375C97.1644 79.375 98.6956 81.2812 98.6956 84.2812C98.6956 87.2969 97.1644 89.2031 95.0863 89.2031C92.9769 89.2031 91.4613 87.2969 91.4613 84.2812C91.4613 81.2812 92.9769 79.375 95.0863 79.375ZM95.0863 80.7031C93.7894 80.7031 92.8988 82.0781 92.8988 84.2812C92.8988 86.5 93.7894 87.875 95.0863 87.875C96.3675 87.875 97.2581 86.5 97.2581 84.2812C97.2581 82.0781 96.3675 80.7031 95.0863 80.7031ZM111.376 86.5312V88.1562H113.563V86.5312H114.938V92.1562H109.985V86.5312H111.376ZM111.376 91H113.563V89.2812H111.376V91ZM119.001 87.5781C119.001 89.0469 119.813 90.5312 121.548 91.1406L120.782 92.2656C119.516 91.7812 118.696 90.8672 118.266 89.75C117.798 90.8438 116.969 91.7656 115.766 92.2656L115.016 91.1406C116.704 90.4531 117.532 88.9688 117.532 87.5781V86.4375H119.001V87.5781ZM112.266 78.9219C114.11 78.9219 115.532 79.9688 115.844 81.5312H118.579V78.3281H120.063V85.75H118.579V82.75H115.86C115.555 84.3594 114.126 85.4062 112.266 85.4062C110.126 85.4062 108.594 84.0938 108.594 82.1562C108.594 80.25 110.126 78.9219 112.266 78.9219ZM112.266 80.1562C110.938 80.1562 110.016 80.9688 110.016 82.1562C110.016 83.3594 110.938 84.1875 112.266 84.2031C113.563 84.1875 114.485 83.3594 114.485 82.1562C114.485 80.9688 113.563 80.1562 112.266 80.1562ZM125.856 79.375C127.755 79.375 129.145 80.9844 129.372 83.5781H132.262V78.3281H133.731V92.3594H132.262V84.7812H129.387C129.223 87.5078 127.802 89.2031 125.856 89.2031C123.762 89.2031 122.294 87.2969 122.309 84.2812C122.294 81.2812 123.762 79.375 125.856 79.375ZM125.856 80.7031C124.591 80.7031 123.716 82.0781 123.716 84.2812C123.716 86.5 124.591 87.875 125.856 87.875C127.122 87.875 127.997 86.5 127.997 84.2812C127.997 82.0781 127.122 80.7031 125.856 80.7031ZM148.54 89.3438V90.5781H135.728V89.3438H138.79V85.6875C137.642 85.0547 136.946 84.0469 136.946 82.7969C136.946 80.5938 139.103 79.1406 142.103 79.1406C145.118 79.1406 147.274 80.5938 147.274 82.7969C147.274 84.0312 146.603 85.0234 145.478 85.6562V89.3438H148.54ZM142.103 80.3281C139.899 80.3281 138.384 81.2812 138.384 82.7969C138.384 84.2969 139.899 85.2812 142.103 85.2812C144.29 85.2812 145.837 84.2969 145.837 82.7969C145.837 81.2812 144.29 80.3281 142.103 80.3281ZM140.259 89.3438H143.978V86.2188C143.407 86.3672 142.774 86.4375 142.103 86.4375C141.446 86.4375 140.821 86.3672 140.259 86.2344V89.3438Z" fill="#202020"/>
</g>
</svg>
