<svg width="141" height="50" viewBox="0 0 141 50" fill="none" xmlns="http://www.w3.org/2000/svg">
<g id="Group 1771">
<g id="&#236;&#156;&#151;&#235;&#170;&#168;&#235;&#139;&#157;">
<path d="M28.62 49.14C30.744 47.088 31.806 45.45 31.806 44.226C31.806 43.038 30.816 42.192 28.836 41.688C27.324 43.704 25.236 45.432 22.572 46.872C19.908 48.348 16.596 49.23 12.636 49.518C12.24 49.554 11.682 49.572 10.962 49.572C9.09 49.572 7.47 49.302 6.102 48.762C4.734 48.222 3.672 47.502 2.916 46.602C2.196 45.738 1.836 44.802 1.836 43.794C1.836 42.57 2.358 41.4 3.402 40.284C4.446 39.132 6.03 38.16 8.154 37.368C10.314 36.576 12.978 36.072 16.146 35.856C18.954 35.712 20.862 35.64 21.87 35.64C22.626 35.64 23.688 35.676 25.056 35.748L26.136 33.48H33.048L31.536 36.72C34.056 37.368 35.874 38.304 36.99 39.528C38.142 40.752 38.718 42.138 38.718 43.686C38.718 45.486 38.07 47.304 36.774 49.14H28.62ZM39.474 0V31.968H32.994V23.436C28.494 25.2 23.202 26.298 17.118 26.73V32.508H10.638V26.946C7.11 26.91 3.564 26.712 0 26.352L0.54 20.412C4.896 20.808 8.604 21.006 11.664 21.006C20.088 21.006 27.198 19.656 32.994 16.956V0H39.474ZM12.204 7.344C10.728 7.344 9.702 7.488 9.126 7.776C8.55 8.028 8.262 8.622 8.262 9.558C8.262 10.278 8.73 10.872 9.666 11.34C10.638 11.772 12.078 11.988 13.986 11.988H14.526C16.434 11.988 17.856 11.772 18.792 11.34C19.764 10.872 20.25 10.278 20.25 9.558C20.25 8.622 19.962 8.028 19.386 7.776C18.81 7.488 17.802 7.344 16.362 7.344H12.204ZM14.526 1.404C18.198 1.404 21.15 1.944 23.382 3.024C25.614 4.068 26.73 6.228 26.73 9.504C26.73 11.16 26.226 12.636 25.218 13.932C24.21 15.192 22.788 16.182 20.952 16.902C19.116 17.586 16.974 17.928 14.526 17.928H13.986C11.538 17.928 9.396 17.586 7.56 16.902C5.724 16.182 4.302 15.192 3.294 13.932C2.286 12.636 1.782 11.16 1.782 9.504C1.782 6.228 2.898 4.068 5.13 3.024C7.362 1.944 10.314 1.404 13.986 1.404H14.526ZM12.096 44.118C15.84 43.866 18.882 42.84 21.222 41.04L16.578 41.256C14.022 41.436 11.97 41.742 10.422 42.174C8.91 42.642 8.154 43.092 8.154 43.524C8.154 43.956 8.928 44.172 10.476 44.172C11.16 44.172 11.7 44.154 12.096 44.118Z" fill="white"/>
<path d="M85.609 43.794H41.761V37.854H60.499V27.972H55.207C52.255 27.972 49.969 27.144 48.349 25.488C46.765 23.796 46.099 21.51 46.351 18.63C46.891 14.454 47.719 10.602 48.835 7.074H45.757V1.134H81.073V27.972H66.979V37.854H85.609V43.794ZM52.831 19.17C52.759 20.286 52.885 21.042 53.209 21.438C53.533 21.834 54.199 22.032 55.207 22.032H74.593V7.074H55.639C54.955 8.982 54.379 10.872 53.911 12.744C53.479 14.58 53.119 16.722 52.831 19.17Z" fill="white"/>
<path d="M96.32 39.15C96.32 40.05 96.752 40.824 97.616 41.472C98.48 42.12 99.776 42.588 101.504 42.876C103.88 43.2 105.86 43.362 107.444 43.362C109.1 43.362 111.08 43.2 113.384 42.876C115.112 42.588 116.408 42.12 117.272 41.472C118.136 40.824 118.568 40.05 118.568 39.15V38.718C118.568 37.71 118.136 36.864 117.272 36.18C116.444 35.46 115.328 35.1 113.924 35.1H100.964C99.56 35.1 98.426 35.46 97.562 36.18C96.734 36.864 96.32 37.71 96.32 38.718V39.15ZM89.84 38.718C89.84 36.99 90.308 35.406 91.244 33.966C92.216 32.49 93.548 31.32 95.24 30.456C96.932 29.592 98.84 29.16 100.964 29.16H113.924C116.048 29.16 117.956 29.592 119.648 30.456C121.34 31.32 122.654 32.49 123.59 33.966C124.562 35.406 125.048 36.99 125.048 38.718V39.15C125.048 41.706 124.058 43.812 122.078 45.468C120.098 47.16 117.56 48.24 114.464 48.708C111.944 49.068 109.604 49.248 107.444 49.248C105.32 49.248 102.98 49.068 100.424 48.708C97.328 48.24 94.79 47.16 92.81 45.468C90.83 43.812 89.84 41.706 89.84 39.15V38.718ZM124.292 0V28.188H117.812V0H124.292ZM114.572 24.03C111.764 24.786 109.19 25.38 106.85 25.812C104.51 26.244 102.278 26.46 100.154 26.46C94.25 26.46 90.362 24.462 88.49 20.466C87.338 18.162 86.762 15.39 86.762 12.15C86.762 9.378 87.212 5.796 88.112 1.404H94.7C93.764 5.832 93.296 9.45 93.296 12.258C93.296 14.634 93.638 16.506 94.322 17.874C95.186 19.674 97.184 20.574 100.316 20.574C102.08 20.574 104.096 20.34 106.364 19.872C108.668 19.404 111.404 18.738 114.572 17.874V24.03Z" fill="white"/>
</g>
<path id="Star 1" d="M135 35L135.585 38.0576L137.296 35.4567L136.667 38.5056L139.243 36.7574L137.494 39.3333L140.543 38.7039L137.942 40.4147L141 41L137.942 41.5853L140.543 43.2961L137.494 42.6667L139.243 45.2426L136.667 43.4944L137.296 46.5433L135.585 43.9424L135 47L134.415 43.9424L132.704 46.5433L133.333 43.4944L130.757 45.2426L132.506 42.6667L129.457 43.2961L132.058 41.5853L129 41L132.058 40.4147L129.457 38.7039L132.506 39.3333L130.757 36.7574L133.333 38.5056L132.704 35.4567L134.415 38.0576L135 35Z" fill="white"/>
</g>
</svg>
