<svg width="120" height="120" viewBox="0 0 120 120" fill="none" xmlns="http://www.w3.org/2000/svg">
<g id="logo">
<rect width="120" height="120" rx="23.4375" fill="#FF7A00"/>
<path id="Star 1" d="M59.9414 15.2344L64.3138 38.0771L77.0949 18.6464L72.3929 41.4236L91.6369 28.3631L78.5764 47.6071L101.354 42.9051L81.9229 55.6862L104.766 60.0586L81.9229 64.431L101.354 77.2121L78.5764 72.5101L91.6369 91.7541L72.3929 78.6936L77.0949 101.471L64.3138 82.0401L59.9414 104.883L55.569 82.0401L42.7879 101.471L47.4899 78.6936L28.2459 91.7541L41.3064 72.5101L18.5292 77.2121L37.9599 64.431L15.1172 60.0586L37.9599 55.6862L18.5292 42.9051L41.3064 47.6071L28.2459 28.3631L47.4899 41.4236L42.7879 18.6464L55.569 38.0771L59.9414 15.2344Z" fill="white"/>
</g>
</svg>
