<svg width="24" height="24" viewBox="0 0 24 24" fill="none" xmlns="http://www.w3.org/2000/svg">
<g id="Icons/Volume off">
<path id="Vector" d="M12.0227 4C11.6719 4.0008 11.2995 4.11565 11.0675 4.24996C10.6555 4.48791 7.49742 6.66665 7.49742 6.66665C7.49742 6.66665 5.0922 6.66487 4.79897 6.66665C3.82662 6.67269 3.0072 7.4957 3 8.44441V15.5555C3.01079 16.5455 3.77985 17.3425 4.79897 17.3332C5.05352 17.3309 7.49742 17.3332 7.49742 17.3332C7.49742 17.3332 10.7167 19.5337 11.1232 19.7776C11.3589 19.9191 11.6269 20.004 11.9948 19.9999C13.0005 19.9884 13.8055 19.1643 13.7938 18.1944V11.9999V5.77777C13.7929 4.77964 12.9951 3.99787 12.0227 4ZM16.4922 9.33329C16.262 9.33329 16.0209 9.40973 15.8455 9.58324C15.4947 9.93044 15.4947 10.5139 15.8455 10.8611L16.9978 11.9999L15.8455 13.1388C15.4947 13.486 15.4947 14.0694 15.8455 14.4166C16.1972 14.7637 16.7873 14.7637 17.139 14.4166L18.2912 13.2777L19.4435 14.4166C19.7952 14.7637 20.3852 14.7637 20.7369 14.4166C21.0877 14.0694 21.0877 13.486 20.7369 13.1388L19.5847 11.9999L20.7369 10.8611C21.0877 10.5139 21.0877 9.93044 20.7369 9.58324C20.5606 9.40973 20.3204 9.33329 20.0902 9.33329C19.8599 9.33329 19.6189 9.40973 19.4435 9.58324L18.2912 10.7222L17.139 9.58324C16.9627 9.40973 16.7225 9.33329 16.4922 9.33329Z" fill="#202020"/>
</g>
</svg>
