<svg width="25" height="24" viewBox="0 0 25 24" fill="none" xmlns="http://www.w3.org/2000/svg">
<g id="Icons/Bubble02">
<path id="Vector" d="M12.75 5C8.8839 5 5.75 8.1339 5.75 12C5.75 12.8904 5.9334 13.7927 6.2533 14.6033L6.8 15.7184C7.1465 16.4387 7.0247 17.1177 6.5592 17.95C6.3023 18.4106 6.6229 18.9657 7.15 18.9783C7.8619 18.9944 9.0008 18.7018 9.9066 18.3658C10.7417 18.7515 11.8176 19 12.75 19C16.6161 19 19.75 15.8661 19.75 12C19.75 8.1339 16.6161 5 12.75 5ZM9.95 11.3C10.3364 11.3 10.65 11.6136 10.65 12C10.65 12.3864 10.3364 12.7 9.95 12.7C9.5636 12.7 9.25 12.3864 9.25 12C9.25 11.6136 9.5636 11.3 9.95 11.3ZM12.75 11.3C13.1364 11.3 13.45 11.6136 13.45 12C13.45 12.3864 13.1364 12.7 12.75 12.7C12.3636 12.7 12.05 12.3864 12.05 12C12.05 11.6136 12.3636 11.3 12.75 11.3ZM15.55 11.3C15.9364 11.3 16.25 11.6136 16.25 12C16.25 12.3864 15.9364 12.7 15.55 12.7C15.1636 12.7 14.85 12.3864 14.85 12C14.85 11.6136 15.1636 11.3 15.55 11.3Z" fill="white"/>
</g>
</svg>
