<svg width="24" height="24" viewBox="0 0 24 24" fill="none" xmlns="http://www.w3.org/2000/svg">
<g id="Icons/more_24px">
<path id="icon" fill-rule="evenodd" clip-rule="evenodd" d="M8 11C7.45 11 7 11.45 7 12C7 12.55 7.45 13 8 13C8.55 13 9 12.55 9 12C9 11.45 8.55 11 8 11ZM16 11C15.45 11 15 11.45 15 12C15 12.55 15.45 13 16 13C16.55 13 17 12.55 17 12C17 11.45 16.55 11 16 11ZM11 12C11 11.45 11.45 11 12 11C12.55 11 13 11.45 13 12C13 12.55 12.55 13 12 13C11.45 13 11 12.55 11 12Z" fill="black"/>
</g>
</svg>
